<svg width="105" height="17" viewBox="0 0 105 17" fill="none" xmlns="http://www.w3.org/2000/svg">
<path d="M2.5058 9.55191C2.44316 9.55191 1.06497 9.55191 0.438515 9.55191C0.104408 9.55191 0 9.42662 0 9.1134C0 8.27813 0 7.42198 0 6.58671C0 6.25261 0.12529 6.1482 0.438515 6.1482H2.5058C2.5058 6.08555 2.5058 4.87442 2.5058 4.31061C2.5058 3.47534 2.65197 2.68184 3.06961 1.95098C3.50812 1.19924 4.13457 0.698082 4.92807 0.405739C5.45012 0.217804 5.97216 0.134277 6.53596 0.134277H8.58237C8.87471 0.134277 9 0.259567 9 0.551911V2.93242C9 3.22476 8.87471 3.35005 8.58237 3.35005C8.01856 3.35005 7.45476 3.35005 6.89095 3.37094C6.32715 3.37094 6.0348 3.6424 6.0348 4.22709C6.01392 4.85354 6.0348 5.4591 6.0348 6.10644H8.45708C8.79118 6.10644 8.91647 6.23173 8.91647 6.56583V9.09251C8.91647 9.42662 8.81207 9.53103 8.45708 9.53103C7.70534 9.53103 6.09745 9.53103 6.0348 9.53103V16.3385C6.0348 16.6934 5.93039 16.8187 5.55452 16.8187C4.67749 16.8187 3.82135 16.8187 2.94432 16.8187C2.63109 16.8187 2.5058 16.6934 2.5058 16.3802C2.5058 14.1876 2.5058 9.61456 2.5058 9.55191Z" fill="#F7F7EE"/>
<path d="M58 3.2055C57.3678 3.48281 56.6942 3.66663 55.9919 3.75587C56.7144 3.3245 57.2658 2.64662 57.5251 1.82956C56.8514 2.23119 56.1077 2.51488 55.3151 2.67319C54.6754 1.99213 53.7638 1.57031 52.7693 1.57031C50.8398 1.57031 49.2864 3.13644 49.2864 5.05638C49.2864 5.33263 49.3098 5.59825 49.3672 5.85112C46.4697 5.70981 43.9059 4.32113 42.1836 2.20569C41.8829 2.72738 41.7066 3.3245 41.7066 3.96731C41.7066 5.17431 42.3281 6.24425 43.2546 6.86369C42.6947 6.85306 42.1454 6.6905 41.68 6.43444C41.68 6.44506 41.68 6.45887 41.68 6.47269C41.68 8.16631 42.8881 9.57306 44.4722 9.89713C44.1886 9.97469 43.8794 10.0119 43.5585 10.0119C43.3354 10.0119 43.1101 9.99912 42.8987 9.95238C43.3503 11.3326 44.6316 12.3472 46.1553 12.3802C44.9695 13.3077 43.4639 13.8666 41.8341 13.8666C41.5483 13.8666 41.2741 13.8539 41 13.8188C42.5438 14.8144 44.3734 15.3828 46.3465 15.3828C52.7597 15.3828 56.266 10.0703 56.266 5.46544C56.266 5.31137 56.2607 5.16263 56.2533 5.01494C56.9449 4.52406 57.5261 3.911 58 3.2055Z" fill="#F7F7EE"/>
<path d="M104.996 15.9762V15.9756H105V10.4571C105 7.75737 104.425 5.67773 101.3 5.67773C99.7984 5.67773 98.7905 6.51034 98.379 7.29969H98.3355V5.92977H95.3732V15.9756H98.4578V11.0013C98.4578 9.69156 98.7036 8.42509 100.309 8.42509C101.891 8.42509 101.915 9.91977 101.915 11.0853V15.9762H104.996Z" fill="#F7F7EE"/>
<path d="M90.2239 5.90234H93.3582V15.7531H90.2239V5.90234Z" fill="#F7F7EE"/>
<path d="M91.791 0.976562C90.8023 0.976562 90 1.77513 90 2.75926C90 3.74339 90.8023 4.55865 91.791 4.55865C92.7798 4.55865 93.5821 3.74339 93.5821 2.75926C93.5815 1.77513 92.7792 0.976563 91.791 0.976563V0.976562Z" fill="#F7F7EE"/>
</svg>
